<svg xmlns="http://www.w3.org/2000/svg" xmlns:ns1="http://sodipodi.sourceforge.net/DTD/sodipodi-0.dtd" xmlns:ns2="http://www.inkscape.org/namespaces/inkscape" xmlns="http://www.w3.org/2000/svg" width="1024" height="1024" viewBox="0 0 1024 1024"><rect x="0" y="0" width="1024" height="1024" rx="200" ry="200" fill="#FFFFFF" /><defs id="defs1" />
  <g transform="translate(81.9200,81.9200) scale(0.840000) translate(-0.0000,-0.0000)"><ns1:namedview id="namedview1" pagecolor="#ffffff" bordercolor="#000000" borderopacity="0.25" ns2:showpageshadow="2" ns2:pageopacity="0.0" ns2:pagecheckerboard="0" ns2:deskcolor="#d1d1d1" />
  <g ns2:groupmode="layer" ns2:label="Image" id="g1">
    <path style="fill:#000000" d="m 166.90584,880.65083 c -52.56419,-8.60187 -78.77547,-57.5553 -55.18266,-103.06174 15.30082,-29.51265 47.37259,-40.36811 59.27261,-20.06225 4.40115,7.50999 3.43029,10.57668 -7.41242,23.41375 -31.09702,36.81692 -12.77297,74.05069 32.36287,65.76008 67.75913,-12.44609 117.89658,-93.34713 177.03939,-285.66817 3.12903,-10.175 6.98301,-22.51721 8.5644,-27.42714 1.58139,-4.90993 2.76747,-8.99493 2.63573,-9.07778 -2.4013,-1.51011 -37.37566,3.73044 -47.65131,7.14006 -23.54106,7.81129 -33.64048,15.82003 -43.09185,34.1714 -12.96394,25.17159 -42.68983,12.35837 -35.51024,-15.30654 9.24625,-35.62833 55.86347,-60.74232 120.13608,-64.72063 l 19.1222,-1.18362 1.26711,-3.54787 c 8.88911,-24.88932 41.41269,-99.88491 54.01308,-124.54788 20.13448,-39.4096 48.66325,-75.56364 72.88224,-92.36246 l 7.40683,-5.13754 -8.40683,-0.0237 c -4.62376,-0.013 -13.80683,-0.44825 -20.40683,-0.96716 -127.03942,-9.98819 -196.61824,4.33722 -242.62754,49.95398 -44.62025,44.23956 -45.50546,110.22129 -1.76048,131.22298 22.36583,10.73769 14.28933,38.39026 -10.36001,35.47091 C 206.73511,469.6604 176.9513,395.09057 195.6148,340.5325 228.32981,244.89831 323.51251,209.332 517.94624,220.08897 c 24.48602,1.35468 126.01787,0.68192 148,-0.98066 114.84104,-8.6858 176.81503,-30.45574 212.22877,-74.55076 17.24093,-21.46736 29.10549,-17.43727 35.52033,12.06534 19.01099,87.43381 -47.49828,204.32376 -144.22618,253.47734 -6.90686,3.50981 -7.27565,3.96232 -2.77292,3.40236 1.7875,-0.22229 7.75,-0.90513 13.25,-1.51741 23.54359,-2.621 45.98457,-9.0469 67.99479,-19.47008 14.44295,-6.83963 17.83576,-6.97198 23.38897,-0.91238 l 3.38496,3.69364 -0.56528,7.11807 c -2.54931,32.10077 -37.57859,91.07905 -76.46132,128.73678 -32.7632,31.73099 -80.29835,59.89607 -134.74212,79.83613 -172.26843,63.09341 -217.61745,105.17793 -250.58368,232.54516 -7.0604,27.27829 -13.13423,34.21113 -26.75823,30.54257 -20.53941,-5.53069 -17.29164,-31.36211 14.84144,-118.04257 10.85313,-29.27682 18.68677,-50.9737 25.99552,-72 27.21605,-78.29697 45.12169,-118.13072 66.30262,-147.5 3.5699,-4.95 6.42584,-9.0659 6.34653,-9.14643 -0.0793,-0.0805 -11.03167,0.0974 -24.33857,0.39531 l -24.19437,0.54174 -6.70338,18.10469 c -3.68686,9.95758 -9.58355,25.48058 -13.10377,34.49556 -3.52021,9.01497 -9.13012,23.86497 -12.46648,33 C 348.43852,805.1617 262.54358,896.30148 166.90584,880.65083 Z M 500.89836,642.06481 c 33.76029,-22.78121 61.01017,-35.46911 136.08566,-63.36326 91.4761,-33.98776 143.97636,-72.86952 178.29643,-132.04653 l 2.24877,-3.87748 -2.29149,0.66588 c -27.80743,8.08048 -68.97406,9.03731 -116.79149,2.71456 -15.48277,-2.04724 -76.34675,27.68906 -114.76667,56.07152 -51.64405,38.1517 -80.20113,78.82524 -107.0606,152.48527 l -2.98359,8.18228 9.99134,-7.95977 c 5.49523,-4.37787 13.26747,-10.17048 17.27164,-12.87247 z M 518.94624,483.9037 c 18.17759,-1.49473 15.60765,-0.28559 69.49477,-32.69695 23.38944,-14.06799 43.97853,-24.19469 70.50523,-34.67784 68.12574,-26.92278 98.07924,-43.02777 135,-72.58497 44.4474,-35.5827 77.79529,-89.52046 82.05836,-132.72337 0.3087,-3.12844 0.7099,-7.15057 0.89154,-8.93807 0.42252,-4.15774 0.37562,-4.14574 -5.99738,1.53441 -35.44362,31.59039 -115.11001,50.59087 -239.95252,57.22882 -72.3941,3.84924 -117.08022,59.32135 -157.87914,195.98677 -3.03755,10.175 -6.21988,20.46908 -7.07184,22.87573 -0.85196,2.40665 -1.54902,4.7236 -1.54902,5.14878 0,1.01436 37.88948,0.21255 54.5,-1.15331 z" id="path1" />
  </g>
</g></svg>